{"title":"Battle of the Damned 2013 DVDRiP XViD-PSiG","uid":8738811,"size":733310324,"categoryP":"video","categoryS":"movies","magnet":"?xt=urn:btih:045bf0dd1fdc42e76a1db19d8cdd998f7988ac20&amp;dn=Battle+of+the+Damned+2013+DVDRiP+XViD-PSiG&amp;tr=udp%3A%2F%2Ftracker.openbittorrent.com%3A80&amp;tr=udp%3A%2F%2Fopen.demonii.com%3A1337&amp;tr=udp%3A%2F%2Ftracker.coppersurfer.tk%3A6969&amp;tr=udp%3A%2F%2Fexodus.desync.com%3A6969","seeders":0,"leechers":1,"uploader":"ValidusVyto","files":-1,"time":1374734368,"description":"_______ Visit us at our Semi Public Bittorrent Community ________\n   &lt;a href=&quot;\nhttp://p2pdl.com&quot; rel=&quot;nofollow&quot; target=&quot;_NEW&quot;&gt;\nhttp://p2pdl.com&lt;/a&gt;  _____________________________ &lt;a href=&quot; http://p2pdl.com&quot; rel=&quot;nofollow&quot; target=&quot;_NEW&quot;&gt; http://p2pdl.com&lt;/a&gt;\n\nBattle of the Damned 2013 DVDRiP XViD-PSiG\n\nFollowing a deadly viral outbreak, private military soldier Max Gatling leads a handful of survivors and a ragtag band of robots against an army of the infected.\n &lt;a href=&quot;\nhttp://www.imdb.com/title/tt2210463/&quot; rel=&quot;nofollow&quot; target=&quot;_NEW&quot;&gt;\nhttp://www.imdb.com/title/tt2210463/&lt;/a&gt;\n\nGeneral\nFormat                                   : AVI\nFormat/Info                              : Audio Video Interleave\nFile size                                : 699 MiB\nDuration                                 : 1h 24mn\nOverall bit rate                         : 1 154 Kbps\nWriting application                      : VirtualDubMod 1.5.10.2 (build 2540/release)\nWriting library                          : VirtualDubMod build 2540/release\n\nVideo\nCodec ID                                 : XVID\nCodec ID/Hint                            : XviD\nDuration                                 : 1h 24mn\nBit rate                                 : 1 016 Kbps\nWidth                                    : 640 pixels\nHeight                                   : 352 pixels\nDisplay aspect ratio                     : 16:9\nFrame rate                               : 25.000 fps\nChroma subsampling                       : 4:2:0\nBit depth                                : 8 bits\nScan type                                : Progressive\nBits/(Pixel*Frame)                       : 0.180\nStream size                              : 616 MiB (88%)\nWriting library                          : XviD 1.2.1 (UTC 2008-12-04)\n\nAudio\nMode                                     : Joint stereo\nCodec ID                                 : 55\nCodec ID/Hint                            : MP3\nDuration                                 : 1h 24mn\nBit rate mode                            : Constant\nBit rate                                 : 128 Kbps\nChannel(s)                               : 2 channels\nSampling rate                            : 48.0 KHz\nCompression mode                         : Lossy\nStream size                              : 77.6 MiB (11%)\nAlignment                                : Aligned on interleaves\nInterleave, duration                     : 40 ms (1.00 video frame)\nInterleave, preload duration             : 504 ms\n &lt;a href=&quot;\nhttp://ultraimg.com/images/0OrM.png&quot; rel=&quot;nofollow&quot; target=&quot;_NEW&quot;&gt;\nhttp://ultraimg.com/images/0OrM.png&lt;/a&gt; &lt;a href=&quot;\nhttp://ultraimg.com/images/Hn2Rx.png&quot; rel=&quot;nofollow&quot; target=&quot;_NEW&quot;&gt;\nhttp://ultraimg.com/images/Hn2Rx.png&lt;/a&gt; &lt;a href=&quot;\nhttp://ultraimg.com/images/hJMie.png&quot; rel=&quot;nofollow&quot; target=&quot;_NEW&quot;&gt;\nhttp://ultraimg.com/images/hJMie.png&lt;/a&gt; &lt;a href=&quot;\nhttp://ultraimg.com/images/1ZY57.png&quot; rel=&quot;nofollow&quot; target=&quot;_NEW&quot;&gt;\nhttp://ultraimg.com/images/1ZY57.png&lt;/a&gt; &lt;a href=&quot;\nhttp://ultraimg.com/images/Jderv.png&quot; rel=&quot;nofollow&quot; target=&quot;_NEW&quot;&gt;\nhttp://ultraimg.com/images/Jderv.png&lt;/a&gt;","torrent":{"xt":"urn:btih:045bf0dd1fdc42e76a1db19d8cdd998f7988ac20","amp;dn":"Battle+of+the+Damned+2013+DVDRiP+XViD-PSiG","amp;tr":["udp%3A%2F%2Ftracker.openbittorrent.com%3A80","udp%3A%2F%2Fopen.demonii.com%3A1337","udp%3A%2F%2Ftracker.coppersurfer.tk%3A6969","udp%3A%2F%2Fexodus.desync.com%3A6969"],"infoHash":"045bf0dd1fdc42e76a1db19d8cdd998f7988ac20","infoHashBuffer":{"type":"Buffer","data":[4,91,240,221,31,220,66,231,106,29,177,157,140,221,153,143,121,136,172,32]},"announce":[],"urlList":[]}}